<?xml version="1.0" standalone="no"?>
<!DOCTYPE svg PUBLIC "-//W3C//DTD SVG 20010904//EN"
 "http://www.w3.org/TR/2001/REC-SVG-20010904/DTD/svg10.dtd">
<svg version="1.0" xmlns="http://www.w3.org/2000/svg"
 width="4000.000000pt" height="4000.000000pt" viewBox="0 0 4000.000000 4000.000000"
 preserveAspectRatio="xMidYMid meet">
<metadata>
Created by potrace 1.14, written by Peter Selinger 2001-2017
</metadata>
<g transform="translate(0.000000,4000.000000) scale(0.100000,-0.100000)"
fill="#000000" stroke="none">
<path d="M19448 39995 c-2 -2 -84 -6 -183 -9 -186 -7 -299 -12 -445 -21 -47
-3 -119 -8 -160 -10 -41 -3 -109 -7 -150 -11 -41 -3 -100 -7 -130 -10 -30 -2
-82 -6 -115 -9 -70 -7 -125 -12 -215 -20 -36 -3 -83 -8 -105 -10 -22 -3 -60
-7 -85 -10 -42 -4 -186 -21 -255 -30 -16 -2 -55 -6 -85 -10 -79 -9 -480 -65
-510 -70 -14 -3 -45 -7 -70 -10 -25 -3 -54 -8 -66 -10 -12 -3 -39 -7 -60 -11
-21 -3 -91 -15 -154 -25 -63 -11 -126 -22 -140 -24 -14 -2 -63 -11 -110 -20
-47 -9 -96 -18 -110 -20 -14 -2 -81 -15 -150 -29 -69 -14 -136 -27 -150 -30
-14 -2 -45 -9 -70 -15 -25 -5 -61 -13 -80 -16 -19 -3 -64 -13 -100 -21 -36 -9
-76 -18 -90 -20 -14 -3 -119 -28 -235 -55 -115 -28 -221 -52 -235 -55 -14 -3
-38 -9 -55 -14 -39 -12 -337 -90 -365 -95 -11 -2 -35 -9 -53 -15 -34 -11 -202
-59 -227 -65 -24 -5 -244 -70 -390 -115 -316 -97 -1079 -360 -1275 -440 -16
-7 -40 -16 -52 -21 -13 -5 -33 -13 -45 -18 -13 -6 -77 -31 -143 -56 -66 -26
-133 -52 -150 -60 -36 -16 -26 -11 -295 -125 -319 -135 -725 -324 -1080 -501
-319 -160 -531 -269 -540 -279 -3 -3 -18 -12 -35 -20 -61 -30 -371 -203 -397
-222 -16 -11 -28 -16 -28 -12 0 4 -8 0 -17 -8 -10 -8 -45 -30 -78 -48 -73 -41
-483 -287 -553 -332 -28 -18 -90 -58 -138 -88 -157 -99 -417 -270 -459 -302
-13 -10 -28 -18 -34 -18 -6 0 -11 -3 -11 -8 0 -4 -8 -12 -18 -17 -95 -51 -881
-623 -1082 -788 -8 -6 -35 -28 -60 -47 -25 -19 -50 -39 -57 -45 -6 -5 -27 -22
-45 -36 -29 -23 -283 -230 -347 -284 -14 -11 -59 -49 -100 -85 -42 -36 -105
-90 -141 -120 -36 -30 -72 -62 -81 -70 -15 -15 -113 -100 -155 -137 -12 -10
-61 -54 -109 -98 -48 -44 -99 -91 -114 -104 -223 -202 -820 -793 -1031 -1020
-63 -69 -126 -136 -140 -150 -24 -25 -121 -132 -276 -306 -39 -44 -84 -96
-100 -115 -16 -19 -31 -37 -34 -40 -23 -23 -271 -315 -325 -384 -16 -22 -35
-44 -40 -50 -6 -6 -28 -33 -50 -61 -22 -27 -42 -52 -45 -55 -3 -3 -50 -61
-104 -130 -54 -69 -105 -134 -115 -145 -9 -11 -27 -36 -41 -55 -13 -19 -29
-40 -35 -46 -5 -6 -39 -50 -75 -98 -36 -48 -81 -108 -101 -134 -20 -26 -118
-162 -218 -302 -99 -140 -185 -259 -189 -265 -56 -70 -522 -789 -522 -805 0
-6 -3 -10 -8 -10 -4 0 -12 -9 -17 -19 -12 -23 -100 -170 -157 -261 -22 -36
-50 -83 -63 -105 -12 -22 -45 -78 -72 -125 -28 -47 -61 -105 -75 -130 -14 -25
-54 -97 -90 -160 -218 -388 -501 -942 -668 -1305 -15 -33 -44 -95 -64 -138
-20 -42 -36 -79 -36 -81 0 -3 -15 -37 -34 -78 -71 -154 -86 -189 -86 -196 0
-4 -7 -20 -16 -37 -9 -16 -30 -66 -49 -110 -18 -44 -56 -136 -84 -205 -29 -69
-95 -235 -147 -370 -52 -135 -103 -267 -113 -295 -67 -172 -243 -689 -325
-955 -20 -63 -43 -135 -51 -160 -36 -113 -158 -544 -211 -750 -19 -74 -41
-160 -49 -190 -55 -208 -182 -769 -221 -980 -3 -14 -16 -81 -29 -150 -13 -69
-26 -138 -29 -155 -3 -16 -11 -57 -17 -90 -6 -33 -12 -69 -14 -80 -1 -11 -8
-51 -15 -90 -6 -38 -14 -83 -16 -100 -3 -16 -10 -57 -15 -90 -6 -33 -13 -76
-15 -95 -2 -19 -6 -46 -9 -60 -7 -40 -13 -77 -30 -205 -9 -66 -18 -131 -20
-145 -2 -14 -7 -50 -10 -80 -3 -30 -7 -66 -10 -80 -6 -32 -13 -91 -20 -160 -5
-52 -7 -68 -19 -165 -3 -22 -10 -94 -16 -160 -6 -66 -13 -131 -15 -145 -2 -14
-6 -61 -10 -105 -3 -44 -7 -100 -9 -125 -17 -214 -27 -361 -41 -615 -20 -359
-27 -1381 -12 -1745 10 -241 22 -459 32 -600 3 -41 8 -104 10 -140 3 -36 7
-92 10 -125 3 -33 7 -87 10 -120 10 -115 16 -181 31 -325 8 -80 17 -167 20
-195 3 -27 7 -66 10 -85 7 -39 9 -58 19 -145 3 -33 8 -76 11 -95 3 -19 7 -51
9 -70 3 -19 7 -51 10 -70 2 -19 7 -51 9 -70 3 -19 12 -84 21 -145 10 -60 18
-119 20 -130 1 -11 6 -42 10 -70 4 -27 9 -59 11 -70 2 -11 7 -40 10 -65 3 -25
8 -47 9 -50 2 -3 6 -26 10 -50 3 -25 14 -90 25 -145 10 -55 21 -113 24 -130 2
-16 19 -102 36 -190 17 -88 33 -169 35 -180 16 -91 153 -697 174 -775 9 -32
60 -231 66 -255 7 -33 60 -232 80 -300 7 -27 27 -97 44 -155 78 -275 132 -452
223 -730 84 -257 217 -638 249 -715 5 -11 33 -85 63 -165 109 -294 280 -708
421 -1025 173 -387 441 -940 598 -1230 29 -55 74 -139 100 -187 25 -47 56
-103 68 -125 174 -307 181 -320 258 -451 34 -57 61 -105 61 -107 0 -2 18 -31
40 -64 22 -33 40 -62 40 -65 0 -4 134 -220 245 -397 98 -155 329 -501 439
-658 56 -79 119 -169 141 -201 22 -32 48 -68 57 -81 10 -13 36 -49 58 -79 22
-30 43 -60 47 -65 4 -6 75 -100 158 -210 82 -110 152 -202 155 -205 3 -3 28
-34 55 -70 27 -36 52 -67 55 -70 3 -3 30 -36 60 -75 30 -38 62 -79 72 -90 9
-11 60 -74 114 -140 54 -66 139 -168 188 -226 50 -58 107 -126 127 -150 21
-24 48 -56 60 -70 30 -32 131 -146 159 -179 20 -23 152 -167 210 -230 14 -15
77 -83 140 -151 145 -156 741 -753 879 -879 57 -52 118 -108 135 -125 18 -16
70 -64 116 -105 46 -41 98 -88 115 -105 47 -43 154 -138 195 -171 19 -16 37
-31 40 -35 9 -11 345 -294 390 -329 25 -19 47 -37 50 -40 25 -30 701 -554 800
-620 12 -8 32 -23 43 -32 37 -30 40 -32 112 -83 39 -27 72 -53 73 -57 2 -4 8
-8 12 -8 5 0 50 -30 100 -66 403 -290 1198 -794 1645 -1042 44 -25 98 -55 120
-67 22 -12 60 -33 85 -47 25 -14 79 -43 120 -66 41 -22 118 -63 170 -92 52
-28 246 -127 430 -219 296 -147 442 -217 720 -344 146 -67 169 -77 174 -77 3
0 35 -13 70 -30 36 -16 94 -41 128 -56 61 -25 93 -39 161 -68 17 -8 136 -56
262 -106 609 -244 1162 -434 1895 -650 134 -40 633 -174 690 -185 8 -2 60 -15
115 -29 55 -13 111 -27 125 -29 14 -3 63 -14 110 -25 131 -32 363 -83 435 -97
17 -3 39 -7 50 -9 98 -20 385 -76 405 -80 62 -10 112 -19 210 -37 58 -10 123
-21 145 -24 22 -3 47 -7 55 -10 8 -2 33 -7 55 -9 22 -3 54 -8 70 -10 17 -2 80
-12 140 -21 61 -9 121 -18 135 -20 14 -2 50 -7 80 -10 30 -4 62 -9 70 -10 8
-2 44 -6 80 -10 36 -4 72 -8 80 -10 8 -1 42 -6 75 -10 33 -3 76 -9 95 -11 19
-3 57 -7 85 -9 27 -3 65 -7 85 -10 19 -2 64 -7 100 -10 36 -3 79 -8 95 -10 17
-3 62 -7 100 -10 39 -3 88 -8 110 -10 22 -3 74 -7 115 -10 104 -7 226 -16 285
-20 44 -4 94 -7 330 -20 470 -27 1539 -27 2010 0 282 16 476 29 605 40 25 2
77 7 115 10 39 3 93 7 120 10 28 3 75 7 105 10 30 3 75 8 100 10 25 3 65 7 90
10 25 3 86 10 135 15 50 6 108 13 130 16 51 6 83 10 230 29 66 9 138 18 160
21 22 2 51 7 65 9 14 2 43 7 65 10 23 3 50 7 60 9 11 2 40 7 65 10 25 3 54 8
65 10 11 2 43 7 70 10 28 4 57 9 65 11 8 2 31 7 50 10 19 3 46 7 60 10 14 2
41 7 60 9 19 3 45 8 56 10 12 2 37 7 55 10 19 3 59 10 89 16 30 6 71 13 90 16
19 3 38 8 41 9 3 2 28 7 55 11 27 3 52 8 55 10 4 2 24 6 45 10 22 3 67 12 102
20 34 7 74 16 90 19 15 3 38 7 52 10 14 3 36 8 50 11 14 3 84 19 155 35 72 16
141 32 155 34 14 3 36 8 50 12 14 3 30 7 35 8 227 53 653 165 930 245 116 33
217 62 225 64 8 3 103 32 210 66 107 33 202 63 210 65 54 14 647 220 765 266
28 10 161 62 297 114 135 52 261 101 280 109 18 9 110 47 203 85 94 38 184 77
200 85 17 9 33 16 37 16 7 0 42 15 196 86 41 19 75 34 78 34 2 0 39 16 81 36
43 20 105 49 138 64 243 111 849 415 980 490 17 10 66 37 110 60 78 41 374
207 445 248 34 20 92 54 175 101 121 69 566 345 714 442 41 27 77 49 82 49 4
0 9 3 11 8 2 4 109 78 238 165 297 200 615 425 741 523 20 16 47 36 59 44 12
8 32 23 43 32 27 22 29 23 102 78 55 41 363 283 410 321 11 9 79 65 150 124
168 138 216 178 229 190 6 6 43 37 81 70 39 33 72 62 75 65 3 3 21 18 40 34
59 48 231 202 424 379 250 229 806 780 1011 1001 61 65 124 133 140 150 42 46
119 130 195 215 36 40 79 87 95 105 17 18 46 52 65 76 19 24 46 55 60 70 24
26 84 96 164 189 56 67 60 72 190 231 65 80 129 159 143 175 14 17 50 62 79
100 29 39 64 83 78 99 15 16 26 32 26 35 0 3 14 20 30 38 17 18 30 36 30 42 0
5 4 11 8 13 5 1 76 93 157 203 81 110 160 216 174 235 311 415 872 1286 1174
1820 57 102 232 419 281 510 69 128 384 757 448 895 150 323 329 732 430 985
27 69 55 139 62 155 7 17 27 66 44 110 17 44 46 121 65 170 111 288 309 863
407 1185 44 145 111 369 114 385 1 6 10 35 19 65 51 173 216 810 241 935 3 11
11 49 19 85 52 228 127 593 156 755 6 33 13 71 16 85 10 49 27 145 30 165 3
20 21 130 30 175 5 29 52 336 60 395 3 23 7 50 9 60 4 21 18 125 21 160 5 46
15 121 19 140 2 11 7 49 11 85 3 36 8 76 10 90 2 14 6 52 9 85 4 33 8 76 11
95 4 31 12 102 20 185 2 17 6 66 10 110 4 44 8 94 9 110 10 108 17 192 22 270
3 50 7 113 10 140 2 28 6 100 10 160 3 61 7 137 9 170 14 234 20 523 19 1000
0 569 -6 811 -29 1180 -4 55 -8 128 -10 161 -2 34 -6 90 -9 125 -3 35 -9 98
-12 139 -3 41 -7 93 -9 115 -2 22 -6 74 -10 115 -3 41 -8 89 -9 105 -6 54 -17
159 -20 195 -2 19 -6 53 -9 75 -4 22 -9 67 -12 100 -3 33 -8 71 -10 85 -2 14
-7 52 -10 85 -4 33 -9 69 -10 80 -2 11 -6 43 -9 70 -12 93 -63 445 -72 488 -2
12 -6 39 -9 62 -3 22 -10 63 -15 90 -5 28 -12 68 -15 89 -3 21 -7 48 -10 60
-3 12 -7 32 -9 46 -10 64 -28 164 -46 255 -21 106 -27 138 -35 183 -30 159
-106 501 -165 747 -17 72 -35 146 -39 165 -5 19 -27 107 -50 195 -23 88 -44
167 -46 175 -2 13 -11 46 -31 115 -2 6 -12 42 -23 80 -20 73 -71 249 -114 395
-62 210 -259 812 -287 875 -5 11 -24 65 -43 120 -19 55 -40 111 -45 125 -6 14
-27 70 -47 125 -20 55 -40 109 -45 120 -4 11 -52 130 -105 265 -94 237 -105
265 -138 340 -9 19 -20 46 -25 60 -10 27 -111 257 -144 330 -11 25 -38 84 -59
132 -21 48 -42 95 -48 105 -5 10 -24 50 -42 88 -201 440 -522 1058 -779 1500
-29 50 -64 110 -78 135 -26 47 -58 102 -79 135 -7 11 -42 70 -78 130 -37 61
-84 137 -106 170 -21 33 -42 67 -46 75 -28 60 -520 799 -643 965 -20 28 -92
127 -160 220 -112 155 -436 583 -450 595 -3 3 -30 37 -60 75 -30 39 -57 72
-60 75 -3 3 -23 28 -45 55 -54 68 -271 329 -320 386 -22 25 -56 65 -76 90 -21
24 -48 56 -60 70 -13 14 -53 59 -89 100 -65 73 -128 143 -207 229 -23 25 -52
57 -65 71 -166 182 -263 283 -553 573 -187 188 -398 395 -469 461 -71 66 -139
129 -150 140 -12 11 -66 60 -121 110 -55 49 -105 94 -111 100 -6 5 -37 32 -68
59 -31 27 -70 61 -85 75 -38 35 -126 111 -178 154 -23 19 -48 41 -56 48 -7 8
-33 30 -57 49 -24 19 -87 71 -140 115 -53 44 -113 94 -134 110 -22 17 -44 35
-50 40 -9 8 -92 74 -161 128 -5 4 -21 17 -35 28 -45 38 -422 324 -555 421
-428 312 -1049 726 -1420 947 -33 20 -68 40 -77 46 -59 35 -136 81 -153 91
-11 6 -60 35 -110 64 -104 61 -202 117 -295 167 -36 20 -69 39 -75 43 -5 4
-59 34 -120 66 -60 32 -141 75 -180 96 -102 55 -744 376 -855 427 -52 25 -126
59 -165 76 -38 18 -99 46 -135 62 -128 59 -159 73 -164 73 -3 0 -35 13 -70 30
-36 16 -94 41 -128 56 -35 14 -76 32 -93 39 -47 21 -145 61 -335 137 -180 72
-196 79 -435 167 -77 29 -156 58 -175 66 -249 99 -1064 358 -1475 470 -71 19
-143 39 -160 44 -28 9 -262 69 -295 76 -8 2 -51 13 -95 24 -44 11 -111 27
-150 36 -38 9 -86 20 -105 25 -19 5 -55 13 -80 19 -25 6 -74 17 -110 25 -66
15 -137 30 -310 66 -155 31 -154 31 -305 60 -55 10 -116 22 -135 26 -19 3 -42
7 -50 9 -18 2 -97 16 -125 21 -22 5 -60 11 -104 19 -16 3 -49 7 -72 10 -24 3
-51 8 -59 10 -8 3 -31 7 -50 9 -19 3 -48 7 -65 10 -44 7 -165 25 -205 30 -19
3 -82 12 -140 20 -58 8 -129 18 -159 21 -30 4 -61 8 -70 10 -16 2 -97 12 -181
21 -81 8 -145 16 -170 19 -14 2 -56 6 -95 10 -38 3 -81 8 -95 10 -14 2 -61 6
-105 10 -44 3 -93 8 -110 10 -16 3 -70 7 -120 10 -49 3 -110 8 -135 10 -25 2
-88 7 -140 10 -52 3 -120 8 -150 10 -30 2 -125 7 -210 11 -85 4 -180 9 -210
11 -68 4 -1317 12 -1322 8z"/>
</g>
</svg>
